#N canvas 710 343 417 457 10;
#X obj 1 76 mtof;
#X obj 15 180 noise~;
#X text 92 44 <-- cutoff (pitch units);
#X text 93 136 <-- cutoff (Hertz);
#X floatatom 56 137 5 0 0 0 - - -;
#X obj 76 226 bp~;
#X text 107 227 band-pass filter;
#X floatatom 97 193 5 0 1000 0 - #0-q -;
#X text 171 169 <-- q;
#X obj 75 354 *~;
#X obj 79 272 *~;
#X obj 244 299 line~;
#X msg 228 265 1 100;
#X obj 74 382 outlet~;
#X obj 74 77 r noiseFrequency;
#X text 141 86;
#X obj 1 46 r noisePitch;
#X obj 87 169 r noiseWidth;
#X msg 302 265 0 300;
#X obj 230 220 r turnOn;
#X obj 302 218 r turnOff;
#X obj 123 252 r volume;
#X connect 0 0 4 0;
#X connect 1 0 5 0;
#X connect 4 0 5 1;
#X connect 5 0 10 0;
#X connect 7 0 5 2;
#X connect 9 0 13 0;
#X connect 10 0 9 0;
#X connect 11 0 9 1;
#X connect 12 0 11 0;
#X connect 14 0 4 0;
#X connect 16 0 0 0;
#X connect 17 0 5 2;
#X connect 18 0 11 0;
#X connect 19 0 12 0;
#X connect 20 0 18 0;
#X connect 21 0 10 1;
