#N canvas 986 22 694 1002 10;
#X obj 1 76 mtof;
#X text 92 44 <-- cutoff (pitch units);
#X text 93 136 <-- cutoff (Hertz);
#X floatatom 53 133 5 0 0 0 - - -;
#X obj 76 226 bp~;
#X text 171 169 <-- q;
#X obj 75 886 *~;
#X obj 131 243 line~;
#X msg 224 206 1 100;
#X obj 74 77 r noiseFrequency;
#X text 141 86 comment;
#X obj 1 46 r noisePitch;
#X obj 87 169 r noiseWidth;
#X obj 224 167 r turnOn;
#X obj 296 165 r turnOff;
#X obj 188 444 r volume;
#X obj 387 29 loadbang;
#X msg 223 71 float 1;
#X obj 369 958 tabwrite~ output;
#X obj 391 931 metro 100;
#X obj 392 904 tgl 15 0 empty empty empty 17 7 0 10 -262144 -1 -1 1
1;
#X msg 296 212 0 150;
#X obj 15 180 pink~;
#X msg 325 70 float 1.7;
#X obj 75 924 dac~;
#X obj 121 677 vline~;
#X text 242 251 comment;
#X obj 76 264 *~;
#X obj 321 511 r attack;
#X obj 227 512 r release;
#X obj 223 107 s volume;
#X obj 325 108 s noiseWidth;
#X obj 435 109 s attack;
#X obj 543 108 s release;
#N canvas 0 22 450 278 (subpatch) 0;
#X array output 100 float 3;
#A 0 0 0 0 0 0 0 0 0 0 0 0 0 0 0 0 0 0 0 0 0 0 0 0 0 0 0 0 0 0 0 0
0 0 0 0 0 0 0 0 0 0 0 0 0 0 0 0 0 0 0 0 0 0 0 0 0 0 0 0 0 0 0 0 0 0
0 0 0 0 0 0 0 0 0 0 0 0 0 0 0 0 0 0 0 0 0 0 0 0 0 0 0 0 0 0 0 0 0 0
0;
#X coords 0 1 99 -1 200 140 1;
#X restore 473 818 graph;
#X obj 387 8 bng 15 250 50 0 empty empty empty 17 7 0 10 -262144 -1
-1;
#X obj 189 589 pack 0 300 50;
#X obj 294 590 pack 1 50;
#X obj 188 483 trigger bang float;
#X msg 435 71 float 110;
#X msg 543 70 float 250;
#X obj 75 315 *~;
#X obj 80 282 r masterVolume;
#X floatatom 80 298 5 0 1 0 - - -;
#X connect 0 0 3 0;
#X connect 3 0 4 1;
#X connect 4 0 27 0;
#X connect 6 0 18 0;
#X connect 6 0 24 0;
#X connect 6 0 24 1;
#X connect 7 0 27 1;
#X connect 8 0 7 0;
#X connect 9 0 3 0;
#X connect 11 0 0 0;
#X connect 12 0 4 2;
#X connect 13 0 8 0;
#X connect 14 0 21 0;
#X connect 15 0 38 0;
#X connect 16 0 17 0;
#X connect 16 0 23 0;
#X connect 16 0 39 0;
#X connect 16 0 40 0;
#X connect 17 0 30 0;
#X connect 19 0 18 0;
#X connect 20 0 19 0;
#X connect 21 0 7 0;
#X connect 22 0 4 0;
#X connect 23 0 31 0;
#X connect 25 0 6 1;
#X connect 27 0 41 0;
#X connect 28 0 36 2;
#X connect 28 0 37 1;
#X connect 29 0 36 1;
#X connect 35 0 16 0;
#X connect 36 0 25 0;
#X connect 37 0 25 0;
#X connect 38 0 36 0;
#X connect 38 1 37 0;
#X connect 39 0 32 0;
#X connect 40 0 33 0;
#X connect 41 0 6 0;
#X connect 42 0 43 0;
#X connect 43 0 41 1;
