#N canvas 75 545 450 300 10;
#X obj 200 78 send noisePitch;
#X obj 203 62 hsl 128 15 80 90 0 0 empty empty empty -2 -8 0 10 -262144
-1 -1 7600 1;
#X obj 39 150 hsl 128 15 0 4 0 0 empty empty empty -2 -8 0 10 -262144
-1 -1 1300 1;
#X obj 36 165 send noiseWidth;
#X floatatom 138 165 5 0 0 0 - - -;
#X obj 53 27 tgl 15 0 empty empty empty 17 7 0 10 -262144 -1 -1 1 1
;
#X obj 27 103 send turnOn;
#X obj 114 103 send turnOff;
#X obj 49 58 select 1 0;
#X obj 199 242 send volume;
#X msg 199 225 float 1;
#X floatatom 300 77 5 0 0 0 - - -;
#X obj 204 148 hsl 128 15 50 400 0 0 empty empty empty -2 -8 0 10 -262144
-1 -1 2200 1;
#X floatatom 303 163 5 0 0 0 - - -;
#X obj 201 163 send attack;
#X obj 205 180 hsl 128 15 50 400 0 0 empty empty empty -2 -8 0 10 -262144
-1 -1 5400 1;
#X floatatom 304 195 5 0 0 0 - - -;
#X obj 202 195 send release;
#X obj 204 100 hsl 128 15 0 1 0 0 masterVolume empty masterVolume 0
8 0 10 -262144 -1 -1 500 0;
#X floatatom 302 116 5 0 0 0 - - -;
#X connect 1 0 0 0;
#X connect 1 0 11 0;
#X connect 2 0 3 0;
#X connect 2 0 4 0;
#X connect 5 0 8 0;
#X connect 8 0 6 0;
#X connect 8 1 7 0;
#X connect 10 0 9 0;
#X connect 12 0 13 0;
#X connect 12 0 14 0;
#X connect 15 0 16 0;
#X connect 15 0 17 0;
#X connect 18 0 19 0;
